Motion_pl02
version=1
nRows=9
nColumns=43
inDegrees=yes
endheader
time	pelvis_tilt	pelvis_list	pelvis_rotation	pelvis_tx	pelvis_ty	pelvis_tz	hip_flexion_r	hip_adduction_r	hip_rotation_r	knee_angle_r	ankle_angle_r	subtalar_angle_r	mtp_angle_r	hip_flexion_l	hip_adduction_l	hip_rotation_l	knee_angle_l	ankle_angle_l	subtalar_angle_l	mtp_angle_l	lumbar_extension	lumbar_bending	lumbar_rotation	neck_flexion	neck_lateral_bending	neck_rotation	arm_flex_r	arm_add_r	arm_rot_r	elbow_flex_r	pro_sup_r	wrist_flex_r	wrist_dev_r	hand_finger_flex_r	arm_flex_l	arm_add_l	arm_rot_l	elbow_flex_l	pro_sup_l	wrist_flex_l	wrist_dev_l	hand_finger_flex_l
      0.99500000	     -2.12281478	     12.97756703	     90.84964390	      0.01508504	      0.41630865	      0.44673861	     91.31980398	     -6.39474018	      5.25975283	   -147.90020320	     21.87491051	      6.81774303	     23.75886406	     88.35286049	     -7.90099471	      3.83317885	   -145.96258516	     21.17135054	     20.16932671	     36.85846838	    -71.95349457	      0.06130879	      5.16650159	     26.44865112	      1.31659966	     -7.32259016	    117.54110413	    -15.86738855	     25.71603365	     63.05991682	    124.21190941	     16.82670150	    -13.49551154	    -11.71033413	    112.04813890	    -20.21580420	     30.90697184	     51.64571706	    127.69535238	    -32.48207151	     -9.43935741	    -18.73662048
      0.99750000	     -2.09328249	     12.70618567	     90.86544672	      0.01507164	      0.41812410	      0.44672507	     91.25610415	     -6.41615295	      5.21792849	   -147.61963511	     21.86312095	      6.82307239	     23.76101933	     88.34356343	     -7.93066796	      3.77195298	   -145.68308826	     21.16590905	     20.16157570	     36.84812752	    -71.91137035	      0.06664275	      5.16184075	     26.32448169	      1.31922929	     -7.32414990	    117.67626352	    -15.76281066	     25.65767385	     63.19688837	    124.20704806	     16.82004698	    -13.51195981	    -11.69807855	    112.20633836	    -20.13464644	     30.82953832	     51.68572167	    127.63269449	    -32.51324824	     -9.44341346	    -18.74204733
      1.00000000	     -2.07004513	     12.19678016	     90.92970216	      0.01503388	      0.41956053	      0.44662291	     91.42415667	     -6.48481974	      5.04373610	   -147.32019997	     22.00301676	      6.58070732	     23.87062517	     88.58084383	     -7.86936007	      3.60637590	   -145.38352278	     21.18742650	     19.74148469	     36.70537589	    -71.61417492	      0.07569650	      5.25198645	     26.36571998	      1.39801672	     -7.39629659	    117.53898056	    -15.72685658	     25.10055489	     63.64718694	    124.57121992	     17.12602602	    -13.31303900	    -11.32492914	    112.19798840	    -19.75766646	     30.45200045	     51.63947875	    126.69586470	    -32.80252577	     -9.78436428	    -18.72426082
      1.00250000	     -2.04611067	     11.92207407	     90.94120490	      0.01498654	      0.42144300	      0.44667043	     91.33972477	     -6.49365126	      5.01251628	   -147.00074247	     21.97716764	      6.59722009	     23.86892339	     88.58023232	     -7.90007154	      3.53867224	   -145.08910453	     21.17211580	     19.75442043	     36.69472655	    -71.55868549	      0.09248910	      5.24683337	     26.28070980	      1.40874325	     -7.39861125	    117.65277883	    -15.59774786	     25.06787427	     63.71943254	    124.58031262	     17.11985486	    -13.31973396	    -11.31845055	    112.34602195	    -19.69916849	     30.39703722	     51.61076204	    126.64000389	    -32.80372904	     -9.77461891	    -18.71883277
      1.00500000	     -2.03221191	     11.62212545	     90.96098094	      0.01501774	      0.42338157	      0.44679057	     91.27886567	     -6.49876909	      4.92976321	   -146.66339601	     21.97314830	      6.61534966	     23.87031484	     88.57394083	     -7.90206294	      3.46288118	   -144.75369379	     21.15083246	     19.76083916	     36.68205808	    -71.48721224	      0.09530629	      5.22386322	     26.21381426	      1.41272343	     -7.39419700	    117.75550460	    -15.48893725	     25.00371158	     63.79234967	    124.59454399	     17.10947519	    -13.32049144	    -11.31249492	    112.49084577	    -19.61726670	     30.30292460	     51.58325814	    126.55333498	    -32.82193015	     -9.75207742	    -18.71933471
      1.00750000	     -2.01246383	     11.31600382	     90.98298475	      0.01500245	      0.42531869	      0.44690494	     91.21848327	     -6.51404775	      4.86282256	   -146.32188863	     21.98765785	      6.61945181	     23.87314594	     88.58078600	     -7.90476836	      3.38837625	   -144.42826294	     21.12470232	     19.75927858	     36.66805988	    -71.40425748	      0.10899186	      5.20067324	     26.17498104	      1.42126528	     -7.38513379	    117.82690364	    -15.38640392	     24.92993412	     63.88006765	    124.61341048	     17.09862194	    -13.31976156	    -11.30632529	    112.60989732	    -19.54048959	     30.18305888	     51.54135618	    126.44450403	    -32.84874050	     -9.72173664	    -18.72264879
      1.01000000	     -2.07405420	     10.78404608	     91.09276996	      0.01489088	      0.42678828	      0.44694844	     91.46703204	     -6.61299237	      4.82203902	   -146.03045663	     22.09883698	      6.37928251	     23.99692383	     88.87301196	     -7.78901517	      3.12949880	   -144.10832297	     21.01082802	     19.33356885	     36.30677222	    -71.08199523	      0.14271146	      5.11586383	     26.30553613	      1.41274781	     -7.33720364	    117.51214154	    -15.05786100	     23.94301566	     64.31097772	    125.93622551	     17.60454491	    -13.28019078	    -10.83434773	    112.65808218	    -19.33330858	     30.02035209	     51.32523459	    124.46296604	    -33.03652563	    -10.86645904	    -18.35180824
      1.01250000	     -2.05069125	     10.49931169	     91.11046218	      0.01486555	      0.42884149	      0.44709425	     91.38966640	     -6.61951809	      4.75230508	   -145.68117344	     22.09705148	      6.39718284	     23.99551855	     88.85414683	     -7.77784209	      3.06896559	   -143.77674636	     20.98070171	     19.35046749	     36.29458255	    -71.01600679	      0.16272242	      5.06608564	     26.23709123	      1.43104834	     -7.32797677	    117.56818284	    -14.97691088	     23.94690505	     64.40088109	    125.93561207	     17.58386151	    -13.30522923	    -10.84541971	    112.74967137	    -19.32134172	     29.94190472	     51.30833330	    124.41223535	    -33.06637548	    -10.83256741	    -18.35397274
      1.01500000	     -2.03415019	     10.19898048	     91.13820949	      0.01483758	      0.43092056	      0.44726861	     91.33265425	     -6.64213159	      4.67404315	   -145.32778013	     22.11272329	      6.40133522	     23.99495657	     88.85702087	     -7.75788964	      2.99925525	   -143.43224486	     20.93101287	     19.35881632	     36.27886716	    -70.94499074	      0.19237554	      5.01209714	     26.21923371	      1.41762496	     -7.29461984	    117.60465533	    -14.88774436	     23.92421820	     64.51569217	    125.93777661	     17.54006536	    -13.32431672	    -10.86646147	    112.83239854	    -19.29536333	     29.83952437	     51.28818426	    124.34431615	    -33.09964281	    -10.79583625	    -18.35658861
